<svg width="16" height="17" viewBox="0 0 16 17" fill="none" xmlns="http://www.w3.org/2000/svg">
<g clip-path="url(#clip0_3415_5240)">
<path d="M14.5 9.94531C15.3284 9.94531 16 9.27374 16 8.44531C16 7.61689 15.3284 6.94531 14.5 6.94531L14.5 9.94531ZM1.5 6.94531C0.671573 6.94531 7.24234e-08 7.61688 0 8.44531C-7.24234e-08 9.27374 0.671573 9.94531 1.5 9.94531L1.5 6.94531ZM14.5 6.94531L1.5 6.94531L1.5 9.94531L14.5 9.94531L14.5 6.94531Z" fill="black"/>
<path d="M9.5 1.94531C9.5 1.11689 8.82843 0.445313 8 0.445312C7.17157 0.445312 6.5 1.11689 6.5 1.94531L9.5 1.94531ZM6.5 14.9453C6.5 15.7737 7.17157 16.4453 8 16.4453C8.82843 16.4453 9.5 15.7737 9.5 14.9453L6.5 14.9453ZM6.5 1.94531L6.5 14.9453L9.5 14.9453L9.5 1.94531L6.5 1.94531Z" fill="black"/>
</g>
<defs>
<clipPath id="clip0_3415_5240">
<rect width="16" height="16" fill="white" transform="translate(16 16.4453) rotate(-180)"/>
</clipPath>
</defs>
</svg>
